<mxfile host="Electron" modified="2024-02-08T19:41:51.555Z" agent="Mozilla/5.0 (X11; Linux x86_64) AppleWebKit/537.36 (KHTML, like Gecko) draw.io/22.1.21 Chrome/120.0.6099.109 Electron/28.1.0 Safari/537.36" etag="pizSslo2opglLDQ4PSo3" version="22.1.21" type="device">
  <diagram name="Page-1" id="UgkzKDdlbD2YLOSZ790F">
    <mxGraphModel dx="345" dy="756" grid="0" gridSize="10" guides="1" tooltips="1" connect="1" arrows="1" fold="1" page="1" pageScale="1" pageWidth="850" pageHeight="1100" math="0" shadow="0">
      <root>
        <mxCell id="0" />
        <mxCell id="1" parent="0" />
        <mxCell id="WaaS-qGKVErQEOPKYESH-2" value="" style="group;fillColor=#232136;strokeColor=#232136;strokeWidth=25;container=0;movable=0;resizable=0;rotatable=0;deletable=0;editable=0;locked=1;connectable=0;" parent="1" vertex="1" connectable="0">
          <mxGeometry x="950" y="440" width="1010" height="540" as="geometry" />
        </mxCell>
        <mxCell id="3aSCwRJMT3F2lno_R7aL-35" value="Looker" style="rounded=1;whiteSpace=wrap;html=1;dashed=1;labelBackgroundColor=none;strokeColor=#FFFFFF;strokeWidth=3;align=center;verticalAlign=bottom;fontFamily=Helvetica;fontSize=12;fontColor=#FFFFFF;fillColor=none;fontStyle=1" parent="1" vertex="1">
          <mxGeometry x="1400" y="470" width="110" height="220" as="geometry" />
        </mxCell>
        <mxCell id="3q7vbKJiPKWtNffgqGiN-1" style="edgeStyle=orthogonalEdgeStyle;rounded=0;orthogonalLoop=1;jettySize=auto;html=1;entryX=0;entryY=0.5;entryDx=0;entryDy=0;strokeWidth=4;endArrow=openThin;endFill=0;strokeColor=#DB918D;" edge="1" parent="1" source="9AoiroFoVsxQzHGqrJnJ-85" target="9AoiroFoVsxQzHGqrJnJ-2">
          <mxGeometry relative="1" as="geometry">
            <Array as="points">
              <mxPoint x="1526" y="526" />
              <mxPoint x="1526" y="713" />
            </Array>
          </mxGeometry>
        </mxCell>
        <mxCell id="9AoiroFoVsxQzHGqrJnJ-85" value="" style="sketch=0;outlineConnect=0;fontColor=#FFFFFF;gradientColor=none;fillColor=default;strokeColor=none;dashed=0;verticalLabelPosition=bottom;verticalAlign=top;align=center;html=1;fontSize=12;fontStyle=0;aspect=fixed;shape=mxgraph.aws4.application_discovery_service_aws_agentless_collector;rotation=0;container=0;flipV=0;" parent="1" vertex="1">
          <mxGeometry x="1419" y="490" width="72" height="72" as="geometry" />
        </mxCell>
        <mxCell id="3aSCwRJMT3F2lno_R7aL-1" value="" style="group" parent="1" vertex="1" connectable="0">
          <mxGeometry x="1549" y="442.5" width="404" height="511" as="geometry" />
        </mxCell>
        <mxCell id="9AoiroFoVsxQzHGqrJnJ-2" value="" style="rounded=1;whiteSpace=wrap;html=1;labelBackgroundColor=none;strokeColor=#FFFFFF;strokeWidth=3;align=left;verticalAlign=top;fontFamily=Helvetica;fontSize=12;fontColor=#FFFFFF;fillColor=none;arcSize=4;dashed=1;" parent="3aSCwRJMT3F2lno_R7aL-1" vertex="1">
          <mxGeometry x="2" y="29" width="402" height="482" as="geometry" />
        </mxCell>
        <mxCell id="9AoiroFoVsxQzHGqrJnJ-78" value="&lt;div style=&quot;text-align: center;&quot;&gt;&lt;span style=&quot;background-color: initial;&quot;&gt;&lt;b&gt;Estado Observado&lt;/b&gt;&lt;/span&gt;&lt;/div&gt;&lt;div style=&quot;text-align: center;&quot;&gt;&lt;span style=&quot;background-color: initial;&quot;&gt;&lt;b&gt;&lt;br&gt;&lt;/b&gt;&lt;/span&gt;&lt;/div&gt;" style="text;whiteSpace=wrap;html=1;fontSize=12;fontFamily=Helvetica;fontColor=#FFFFFF;container=0;" parent="3aSCwRJMT3F2lno_R7aL-1" vertex="1">
          <mxGeometry width="160" height="40" as="geometry" />
        </mxCell>
        <mxCell id="9AoiroFoVsxQzHGqrJnJ-134" value="" style="group" parent="3aSCwRJMT3F2lno_R7aL-1" vertex="1" connectable="0">
          <mxGeometry x="17" y="34" width="372" height="448" as="geometry" />
        </mxCell>
        <mxCell id="9AoiroFoVsxQzHGqrJnJ-125" value="Opcionales" style="text;html=1;strokeColor=none;fillColor=none;align=left;verticalAlign=middle;whiteSpace=wrap;rounded=0;fontSize=12;fontFamily=Helvetica;fontColor=#FFFFFF;container=0;" parent="9AoiroFoVsxQzHGqrJnJ-134" vertex="1">
          <mxGeometry x="17" y="346" width="75" height="30" as="geometry" />
        </mxCell>
        <mxCell id="9AoiroFoVsxQzHGqrJnJ-126" value="Requeridos" style="text;html=1;strokeColor=none;fillColor=none;align=left;verticalAlign=middle;whiteSpace=wrap;rounded=0;fontSize=12;fontFamily=Helvetica;fontColor=#FFFFFF;container=0;" parent="9AoiroFoVsxQzHGqrJnJ-134" vertex="1">
          <mxGeometry x="17" y="256" width="75" height="30" as="geometry" />
        </mxCell>
        <mxCell id="9AoiroFoVsxQzHGqrJnJ-127" value="" style="rounded=1;whiteSpace=wrap;html=1;labelBackgroundColor=none;strokeColor=#DB918D;strokeWidth=3;align=left;verticalAlign=top;fontFamily=Helvetica;fontSize=12;fontColor=#FFFFFF;fillColor=none;arcSize=7;container=0;" parent="9AoiroFoVsxQzHGqrJnJ-134" vertex="1">
          <mxGeometry x="2" y="248" width="370" height="200" as="geometry" />
        </mxCell>
        <mxCell id="9AoiroFoVsxQzHGqrJnJ-128" value="&lt;b style=&quot;border-color: var(--border-color); color: rgb(255, 255, 255); font-family: Helvetica; font-size: 12px; font-style: normal; font-variant-ligatures: normal; font-variant-caps: normal; letter-spacing: normal; orphans: 2; text-align: center; text-indent: 0px; text-transform: none; widows: 2; word-spacing: 0px; -webkit-text-stroke-width: 0px; text-decoration-thickness: initial; text-decoration-style: initial; text-decoration-color: initial;&quot;&gt;South Sector&lt;/b&gt;" style="text;whiteSpace=wrap;html=1;fontSize=12;fontFamily=Helvetica;fontColor=#FFFFFF;container=0;" parent="9AoiroFoVsxQzHGqrJnJ-134" vertex="1">
          <mxGeometry y="224" width="110" height="40" as="geometry" />
        </mxCell>
        <mxCell id="9AoiroFoVsxQzHGqrJnJ-129" value="" style="rounded=1;whiteSpace=wrap;html=1;labelBackgroundColor=none;strokeColor=#DB918D;strokeWidth=3;align=left;verticalAlign=top;fontFamily=Helvetica;fontSize=12;fontColor=#FFFFFF;fillColor=none;arcSize=7;container=0;" parent="9AoiroFoVsxQzHGqrJnJ-134" vertex="1">
          <mxGeometry x="2" y="24" width="370" height="200" as="geometry" />
        </mxCell>
        <mxCell id="9AoiroFoVsxQzHGqrJnJ-130" value="Opcionales" style="text;html=1;strokeColor=none;fillColor=none;align=left;verticalAlign=middle;whiteSpace=wrap;rounded=0;fontSize=12;fontFamily=Helvetica;fontColor=#FFFFFF;container=0;" parent="9AoiroFoVsxQzHGqrJnJ-134" vertex="1">
          <mxGeometry x="17" y="114" width="75" height="30" as="geometry" />
        </mxCell>
        <mxCell id="9AoiroFoVsxQzHGqrJnJ-131" value="Requeridos" style="text;html=1;strokeColor=none;fillColor=none;align=left;verticalAlign=middle;whiteSpace=wrap;rounded=0;fontSize=12;fontFamily=Helvetica;fontColor=#FFFFFF;container=0;" parent="9AoiroFoVsxQzHGqrJnJ-134" vertex="1">
          <mxGeometry x="17" y="24" width="75" height="30" as="geometry" />
        </mxCell>
        <mxCell id="9AoiroFoVsxQzHGqrJnJ-132" value="&lt;b style=&quot;border-color: var(--border-color); color: rgb(255, 255, 255); font-family: Helvetica; font-size: 12px; font-style: normal; font-variant-ligatures: normal; font-variant-caps: normal; letter-spacing: normal; orphans: 2; text-align: center; text-indent: 0px; text-transform: none; widows: 2; word-spacing: 0px; -webkit-text-stroke-width: 0px; text-decoration-thickness: initial; text-decoration-style: initial; text-decoration-color: initial;&quot;&gt;North Sector&lt;/b&gt;" style="text;whiteSpace=wrap;html=1;fontSize=12;fontFamily=Helvetica;fontColor=#FFFFFF;container=0;" parent="9AoiroFoVsxQzHGqrJnJ-134" vertex="1">
          <mxGeometry width="110" height="40" as="geometry" />
        </mxCell>
        <mxCell id="3aSCwRJMT3F2lno_R7aL-2" value="" style="group" parent="1" vertex="1" connectable="0">
          <mxGeometry x="955" y="440" width="404" height="510" as="geometry" />
        </mxCell>
        <mxCell id="WaaS-qGKVErQEOPKYESH-108" value="" style="rounded=1;whiteSpace=wrap;html=1;labelBackgroundColor=none;strokeColor=#FFFFFF;strokeWidth=3;align=left;verticalAlign=top;fontFamily=Helvetica;fontSize=12;fontColor=#FFFFFF;fillColor=none;arcSize=4;dashed=1;container=0;" parent="3aSCwRJMT3F2lno_R7aL-2" vertex="1">
          <mxGeometry x="2" y="28" width="402" height="482" as="geometry" />
        </mxCell>
        <mxCell id="WaaS-qGKVErQEOPKYESH-149" value="&lt;div style=&quot;text-align: center;&quot;&gt;&lt;span style=&quot;background-color: initial;&quot;&gt;&lt;b&gt;Estado de referencia&lt;/b&gt;&lt;/span&gt;&lt;/div&gt;" style="text;whiteSpace=wrap;html=1;fontSize=12;fontFamily=Helvetica;fontColor=#FFFFFF;container=0;" parent="3aSCwRJMT3F2lno_R7aL-2" vertex="1">
          <mxGeometry width="160" height="40" as="geometry" />
        </mxCell>
        <mxCell id="9AoiroFoVsxQzHGqrJnJ-135" value="" style="group" parent="3aSCwRJMT3F2lno_R7aL-2" vertex="1" connectable="0">
          <mxGeometry x="17" y="34" width="372" height="448" as="geometry" />
        </mxCell>
        <mxCell id="WaaS-qGKVErQEOPKYESH-105" value="&lt;b style=&quot;border-color: var(--border-color); color: rgb(255, 255, 255); font-family: Helvetica; font-size: 12px; font-style: normal; font-variant-ligatures: normal; font-variant-caps: normal; letter-spacing: normal; orphans: 2; text-align: center; text-indent: 0px; text-transform: none; widows: 2; word-spacing: 0px; -webkit-text-stroke-width: 0px; text-decoration-thickness: initial; text-decoration-style: initial; text-decoration-color: initial;&quot;&gt;North Sector&lt;/b&gt;" style="text;whiteSpace=wrap;html=1;fontSize=12;fontFamily=Helvetica;fontColor=#FFFFFF;container=0;" parent="9AoiroFoVsxQzHGqrJnJ-135" vertex="1">
          <mxGeometry width="110" height="40" as="geometry" />
        </mxCell>
        <mxCell id="WaaS-qGKVErQEOPKYESH-106" value="&lt;b style=&quot;border-color: var(--border-color); color: rgb(255, 255, 255); font-family: Helvetica; font-size: 12px; font-style: normal; font-variant-ligatures: normal; font-variant-caps: normal; letter-spacing: normal; orphans: 2; text-align: center; text-indent: 0px; text-transform: none; widows: 2; word-spacing: 0px; -webkit-text-stroke-width: 0px; text-decoration-thickness: initial; text-decoration-style: initial; text-decoration-color: initial;&quot;&gt;South Sector&lt;/b&gt;" style="text;whiteSpace=wrap;html=1;fontSize=12;fontFamily=Helvetica;fontColor=#FFFFFF;container=0;" parent="9AoiroFoVsxQzHGqrJnJ-135" vertex="1">
          <mxGeometry y="224" width="110" height="40" as="geometry" />
        </mxCell>
        <mxCell id="WaaS-qGKVErQEOPKYESH-18" value="" style="rounded=1;whiteSpace=wrap;html=1;labelBackgroundColor=none;strokeColor=#DB918D;strokeWidth=3;align=left;verticalAlign=top;fontFamily=Helvetica;fontSize=12;fontColor=#FFFFFF;fillColor=none;arcSize=7;container=0;" parent="9AoiroFoVsxQzHGqrJnJ-135" vertex="1">
          <mxGeometry x="2" y="24" width="370" height="200" as="geometry" />
        </mxCell>
        <mxCell id="WaaS-qGKVErQEOPKYESH-21" value="" style="rounded=1;whiteSpace=wrap;html=1;labelBackgroundColor=none;strokeColor=#DB918D;strokeWidth=3;align=left;verticalAlign=top;fontFamily=Helvetica;fontSize=12;fontColor=#FFFFFF;fillColor=none;container=0;" parent="9AoiroFoVsxQzHGqrJnJ-135" vertex="1">
          <mxGeometry x="194" y="144" width="75" height="60" as="geometry" />
        </mxCell>
        <mxCell id="WaaS-qGKVErQEOPKYESH-22" value="" style="rounded=1;whiteSpace=wrap;html=1;labelBackgroundColor=none;strokeColor=#DB918D;strokeWidth=3;align=left;verticalAlign=top;fontFamily=Helvetica;fontSize=12;fontColor=#FFFFFF;fillColor=none;container=0;" parent="9AoiroFoVsxQzHGqrJnJ-135" vertex="1">
          <mxGeometry x="104" y="144" width="75" height="60" as="geometry" />
        </mxCell>
        <mxCell id="WaaS-qGKVErQEOPKYESH-27" value="" style="rounded=1;whiteSpace=wrap;html=1;labelBackgroundColor=none;strokeColor=#DB918D;strokeWidth=3;align=left;verticalAlign=top;fontFamily=Helvetica;fontSize=12;fontColor=#FFFFFF;fillColor=none;container=0;" parent="9AoiroFoVsxQzHGqrJnJ-135" vertex="1">
          <mxGeometry x="105" y="56" width="75" height="60" as="geometry" />
        </mxCell>
        <mxCell id="WaaS-qGKVErQEOPKYESH-28" value="" style="rounded=1;whiteSpace=wrap;html=1;labelBackgroundColor=none;strokeColor=#DB918D;strokeWidth=3;align=left;verticalAlign=top;fontFamily=Helvetica;fontSize=12;fontColor=#FFFFFF;fillColor=none;container=0;" parent="9AoiroFoVsxQzHGqrJnJ-135" vertex="1">
          <mxGeometry x="17" y="56" width="75" height="60" as="geometry" />
        </mxCell>
        <mxCell id="WaaS-qGKVErQEOPKYESH-29" value="" style="rounded=1;whiteSpace=wrap;html=1;labelBackgroundColor=none;strokeColor=#DB918D;strokeWidth=3;align=left;verticalAlign=top;fontFamily=Helvetica;fontSize=12;fontColor=#FFFFFF;fillColor=none;container=0;" parent="9AoiroFoVsxQzHGqrJnJ-135" vertex="1">
          <mxGeometry x="194" y="54" width="75" height="60" as="geometry" />
        </mxCell>
        <mxCell id="WaaS-qGKVErQEOPKYESH-30" value="" style="rounded=1;whiteSpace=wrap;html=1;labelBackgroundColor=none;strokeColor=#DB918D;strokeWidth=3;align=left;verticalAlign=top;fontFamily=Helvetica;fontSize=12;fontColor=#FFFFFF;fillColor=none;container=0;" parent="9AoiroFoVsxQzHGqrJnJ-135" vertex="1">
          <mxGeometry x="282" y="54" width="75" height="60" as="geometry" />
        </mxCell>
        <mxCell id="WaaS-qGKVErQEOPKYESH-31" value="Requeridos" style="text;html=1;strokeColor=none;fillColor=none;align=left;verticalAlign=middle;whiteSpace=wrap;rounded=0;fontSize=12;fontFamily=Helvetica;fontColor=#FFFFFF;container=0;" parent="9AoiroFoVsxQzHGqrJnJ-135" vertex="1">
          <mxGeometry x="17" y="24" width="75" height="30" as="geometry" />
        </mxCell>
        <mxCell id="WaaS-qGKVErQEOPKYESH-32" value="Opcionales" style="text;html=1;strokeColor=none;fillColor=none;align=left;verticalAlign=middle;whiteSpace=wrap;rounded=0;fontSize=12;fontFamily=Helvetica;fontColor=#FFFFFF;container=0;" parent="9AoiroFoVsxQzHGqrJnJ-135" vertex="1">
          <mxGeometry x="17" y="114" width="75" height="30" as="geometry" />
        </mxCell>
        <mxCell id="WaaS-qGKVErQEOPKYESH-81" value="" style="sketch=0;outlineConnect=0;dashed=0;verticalLabelPosition=bottom;verticalAlign=top;align=center;html=1;fontSize=12;fontStyle=0;aspect=fixed;pointerEvents=1;shape=mxgraph.aws4.iot_thing_temperature_sensor;rounded=1;labelBackgroundColor=none;strokeWidth=3;fontFamily=Helvetica;container=0;" parent="9AoiroFoVsxQzHGqrJnJ-135" vertex="1">
          <mxGeometry x="29.5" y="61" width="50" height="50" as="geometry" />
        </mxCell>
        <mxCell id="WaaS-qGKVErQEOPKYESH-86" value="" style="sketch=0;outlineConnect=0;fontColor=#232F3E;gradientColor=none;strokeColor=#FFFFFF;fillColor=none;dashed=0;verticalLabelPosition=bottom;verticalAlign=top;align=center;html=1;fontSize=12;fontStyle=0;aspect=fixed;shape=mxgraph.aws4.resourceIcon;resIcon=mxgraph.aws4.windfarm;rounded=1;labelBackgroundColor=none;strokeWidth=3;fontFamily=Helvetica;container=0;" parent="9AoiroFoVsxQzHGqrJnJ-135" vertex="1">
          <mxGeometry x="112.5" y="56" width="60" height="60" as="geometry" />
        </mxCell>
        <mxCell id="WaaS-qGKVErQEOPKYESH-87" value="" style="sketch=0;outlineConnect=0;fontColor=#232F3E;gradientColor=none;strokeColor=#FFFFFF;fillColor=none;dashed=0;verticalLabelPosition=bottom;verticalAlign=top;align=center;html=1;fontSize=12;fontStyle=0;aspect=fixed;shape=mxgraph.aws4.resourceIcon;resIcon=mxgraph.aws4.windfarm;rounded=1;labelBackgroundColor=none;strokeWidth=3;fontFamily=Helvetica;container=0;" parent="9AoiroFoVsxQzHGqrJnJ-135" vertex="1">
          <mxGeometry x="201.5" y="56" width="60" height="60" as="geometry" />
        </mxCell>
        <mxCell id="WaaS-qGKVErQEOPKYESH-88" value="" style="sketch=0;outlineConnect=0;fontColor=#232F3E;gradientColor=none;strokeColor=#FFFFFF;fillColor=none;dashed=0;verticalLabelPosition=bottom;verticalAlign=top;align=center;html=1;fontSize=12;fontStyle=0;aspect=fixed;shape=mxgraph.aws4.resourceIcon;resIcon=mxgraph.aws4.windfarm;rounded=1;labelBackgroundColor=none;strokeWidth=3;fontFamily=Helvetica;container=0;" parent="9AoiroFoVsxQzHGqrJnJ-135" vertex="1">
          <mxGeometry x="289.5" y="56" width="60" height="60" as="geometry" />
        </mxCell>
        <mxCell id="WaaS-qGKVErQEOPKYESH-95" value="" style="sketch=0;outlineConnect=0;fontColor=#232F3E;gradientColor=none;strokeColor=#FFFFFF;fillColor=none;dashed=0;verticalLabelPosition=bottom;verticalAlign=top;align=center;html=1;fontSize=12;fontStyle=0;aspect=fixed;shape=mxgraph.aws4.resourceIcon;resIcon=mxgraph.aws4.generic;rounded=1;labelBackgroundColor=none;strokeWidth=3;fontFamily=Helvetica;container=0;" parent="9AoiroFoVsxQzHGqrJnJ-135" vertex="1">
          <mxGeometry x="111.5" y="144" width="60" height="60" as="geometry" />
        </mxCell>
        <mxCell id="WaaS-qGKVErQEOPKYESH-96" value="" style="sketch=0;outlineConnect=0;fontColor=#232F3E;gradientColor=none;strokeColor=#FFFFFF;fillColor=none;dashed=0;verticalLabelPosition=bottom;verticalAlign=top;align=center;html=1;fontSize=12;fontStyle=0;aspect=fixed;shape=mxgraph.aws4.resourceIcon;resIcon=mxgraph.aws4.generic;rounded=1;labelBackgroundColor=none;strokeWidth=3;fontFamily=Helvetica;container=0;" parent="9AoiroFoVsxQzHGqrJnJ-135" vertex="1">
          <mxGeometry x="201.5" y="144" width="60" height="60" as="geometry" />
        </mxCell>
        <mxCell id="WaaS-qGKVErQEOPKYESH-69" value="" style="rounded=1;whiteSpace=wrap;html=1;labelBackgroundColor=none;strokeColor=#DB918D;strokeWidth=3;align=left;verticalAlign=top;fontFamily=Helvetica;fontSize=12;fontColor=#FFFFFF;fillColor=none;arcSize=7;container=0;" parent="9AoiroFoVsxQzHGqrJnJ-135" vertex="1">
          <mxGeometry x="2" y="248" width="370" height="200" as="geometry" />
        </mxCell>
        <mxCell id="WaaS-qGKVErQEOPKYESH-71" value="" style="rounded=1;whiteSpace=wrap;html=1;labelBackgroundColor=none;strokeColor=#DB918D;strokeWidth=3;align=left;verticalAlign=top;fontFamily=Helvetica;fontSize=12;fontColor=#FFFFFF;fillColor=none;container=0;" parent="9AoiroFoVsxQzHGqrJnJ-135" vertex="1">
          <mxGeometry x="194" y="376" width="75" height="60" as="geometry" />
        </mxCell>
        <mxCell id="WaaS-qGKVErQEOPKYESH-72" value="" style="rounded=1;whiteSpace=wrap;html=1;labelBackgroundColor=none;strokeColor=#DB918D;strokeWidth=3;align=left;verticalAlign=top;fontFamily=Helvetica;fontSize=12;fontColor=#FFFFFF;fillColor=none;container=0;" parent="9AoiroFoVsxQzHGqrJnJ-135" vertex="1">
          <mxGeometry x="104" y="376" width="75" height="60" as="geometry" />
        </mxCell>
        <mxCell id="WaaS-qGKVErQEOPKYESH-74" value="" style="rounded=1;whiteSpace=wrap;html=1;labelBackgroundColor=none;strokeColor=#DB918D;strokeWidth=3;align=left;verticalAlign=top;fontFamily=Helvetica;fontSize=12;fontColor=#FFFFFF;fillColor=none;container=0;" parent="9AoiroFoVsxQzHGqrJnJ-135" vertex="1">
          <mxGeometry x="17" y="286" width="75" height="60" as="geometry" />
        </mxCell>
        <mxCell id="WaaS-qGKVErQEOPKYESH-75" value="" style="rounded=1;whiteSpace=wrap;html=1;labelBackgroundColor=none;strokeColor=#DB918D;strokeWidth=3;align=left;verticalAlign=top;fontFamily=Helvetica;fontSize=12;fontColor=#FFFFFF;fillColor=none;container=0;" parent="9AoiroFoVsxQzHGqrJnJ-135" vertex="1">
          <mxGeometry x="105" y="286" width="75" height="60" as="geometry" />
        </mxCell>
        <mxCell id="WaaS-qGKVErQEOPKYESH-76" value="" style="rounded=1;whiteSpace=wrap;html=1;labelBackgroundColor=none;strokeColor=#DB918D;strokeWidth=3;align=left;verticalAlign=top;fontFamily=Helvetica;fontSize=12;fontColor=#FFFFFF;fillColor=none;container=0;" parent="9AoiroFoVsxQzHGqrJnJ-135" vertex="1">
          <mxGeometry x="194" y="286" width="75" height="60" as="geometry" />
        </mxCell>
        <mxCell id="WaaS-qGKVErQEOPKYESH-77" value="" style="rounded=1;whiteSpace=wrap;html=1;labelBackgroundColor=none;strokeColor=#DB918D;strokeWidth=3;align=left;verticalAlign=top;fontFamily=Helvetica;fontSize=12;fontColor=#FFFFFF;fillColor=none;container=0;" parent="9AoiroFoVsxQzHGqrJnJ-135" vertex="1">
          <mxGeometry x="282" y="286" width="75" height="60" as="geometry" />
        </mxCell>
        <mxCell id="WaaS-qGKVErQEOPKYESH-78" value="Requeridos" style="text;html=1;strokeColor=none;fillColor=none;align=left;verticalAlign=middle;whiteSpace=wrap;rounded=0;fontSize=12;fontFamily=Helvetica;fontColor=#FFFFFF;container=0;" parent="9AoiroFoVsxQzHGqrJnJ-135" vertex="1">
          <mxGeometry x="17" y="256" width="75" height="30" as="geometry" />
        </mxCell>
        <mxCell id="WaaS-qGKVErQEOPKYESH-79" value="Opcionales" style="text;html=1;strokeColor=none;fillColor=none;align=left;verticalAlign=middle;whiteSpace=wrap;rounded=0;fontSize=12;fontFamily=Helvetica;fontColor=#FFFFFF;container=0;" parent="9AoiroFoVsxQzHGqrJnJ-135" vertex="1">
          <mxGeometry x="17" y="346" width="75" height="30" as="geometry" />
        </mxCell>
        <mxCell id="WaaS-qGKVErQEOPKYESH-84" value="" style="sketch=0;outlineConnect=0;dashed=0;verticalLabelPosition=bottom;verticalAlign=top;align=center;html=1;fontSize=12;fontStyle=0;aspect=fixed;pointerEvents=1;shape=mxgraph.aws4.iot_thing_temperature_sensor;rounded=1;labelBackgroundColor=none;strokeWidth=3;fontFamily=Helvetica;container=0;" parent="9AoiroFoVsxQzHGqrJnJ-135" vertex="1">
          <mxGeometry x="29.5" y="291" width="50" height="50" as="geometry" />
        </mxCell>
        <mxCell id="WaaS-qGKVErQEOPKYESH-89" value="" style="sketch=0;outlineConnect=0;fontColor=#232F3E;gradientColor=none;strokeColor=#FFFFFF;fillColor=none;dashed=0;verticalLabelPosition=bottom;verticalAlign=top;align=center;html=1;fontSize=12;fontStyle=0;aspect=fixed;shape=mxgraph.aws4.resourceIcon;resIcon=mxgraph.aws4.windfarm;rounded=1;labelBackgroundColor=none;strokeWidth=3;fontFamily=Helvetica;container=0;" parent="9AoiroFoVsxQzHGqrJnJ-135" vertex="1">
          <mxGeometry x="112.5" y="286" width="60" height="60" as="geometry" />
        </mxCell>
        <mxCell id="WaaS-qGKVErQEOPKYESH-90" value="" style="sketch=0;outlineConnect=0;fontColor=#232F3E;gradientColor=none;strokeColor=#FFFFFF;fillColor=none;dashed=0;verticalLabelPosition=bottom;verticalAlign=top;align=center;html=1;fontSize=12;fontStyle=0;aspect=fixed;shape=mxgraph.aws4.resourceIcon;resIcon=mxgraph.aws4.windfarm;rounded=1;labelBackgroundColor=none;strokeWidth=3;fontFamily=Helvetica;container=0;" parent="9AoiroFoVsxQzHGqrJnJ-135" vertex="1">
          <mxGeometry x="201.5" y="286" width="60" height="60" as="geometry" />
        </mxCell>
        <mxCell id="WaaS-qGKVErQEOPKYESH-91" value="" style="sketch=0;outlineConnect=0;fontColor=#232F3E;gradientColor=none;strokeColor=#FFFFFF;fillColor=none;dashed=0;verticalLabelPosition=bottom;verticalAlign=top;align=center;html=1;fontSize=12;fontStyle=0;aspect=fixed;shape=mxgraph.aws4.resourceIcon;resIcon=mxgraph.aws4.windfarm;rounded=1;labelBackgroundColor=none;strokeWidth=3;fontFamily=Helvetica;container=0;" parent="9AoiroFoVsxQzHGqrJnJ-135" vertex="1">
          <mxGeometry x="289.5" y="286" width="60" height="60" as="geometry" />
        </mxCell>
        <mxCell id="WaaS-qGKVErQEOPKYESH-98" value="" style="sketch=0;outlineConnect=0;fontColor=#232F3E;gradientColor=none;strokeColor=#FFFFFF;fillColor=none;dashed=0;verticalLabelPosition=bottom;verticalAlign=top;align=center;html=1;fontSize=12;fontStyle=0;aspect=fixed;shape=mxgraph.aws4.resourceIcon;resIcon=mxgraph.aws4.generic;rounded=1;labelBackgroundColor=none;strokeWidth=3;fontFamily=Helvetica;container=0;" parent="9AoiroFoVsxQzHGqrJnJ-135" vertex="1">
          <mxGeometry x="111.5" y="376" width="60" height="60" as="geometry" />
        </mxCell>
        <mxCell id="WaaS-qGKVErQEOPKYESH-100" value="" style="sketch=0;outlineConnect=0;fontColor=#232F3E;gradientColor=none;strokeColor=#FFFFFF;fillColor=none;dashed=0;verticalLabelPosition=bottom;verticalAlign=top;align=center;html=1;fontSize=12;fontStyle=0;aspect=fixed;shape=mxgraph.aws4.resourceIcon;resIcon=mxgraph.aws4.generic;rounded=1;labelBackgroundColor=none;strokeWidth=3;fontFamily=Helvetica;container=0;" parent="9AoiroFoVsxQzHGqrJnJ-135" vertex="1">
          <mxGeometry x="202" y="376" width="60" height="60" as="geometry" />
        </mxCell>
        <mxCell id="3aSCwRJMT3F2lno_R7aL-4" value="" style="sketch=0;outlineConnect=0;fontColor=#232F3E;gradientColor=none;fillColor=#DB918D;strokeColor=none;dashed=0;verticalLabelPosition=bottom;verticalAlign=top;align=center;html=1;fontSize=12;fontStyle=0;aspect=fixed;pointerEvents=1;shape=mxgraph.aws4.user;container=0;fillStyle=auto;" parent="1" vertex="1">
          <mxGeometry x="956.5" y="65" width="57" height="57" as="geometry" />
        </mxCell>
        <mxCell id="3aSCwRJMT3F2lno_R7aL-5" value="" style="endArrow=openThin;html=1;rounded=0;labelBackgroundColor=default;strokeColor=#D88F8C;strokeWidth=4;align=center;verticalAlign=middle;fontFamily=Helvetica;fontSize=11;fontColor=default;shape=connector;endFill=0;" parent="1" edge="1">
          <mxGeometry width="50" height="50" relative="1" as="geometry">
            <mxPoint x="984.83" y="129" as="sourcePoint" />
            <mxPoint x="984.83" y="166" as="targetPoint" />
          </mxGeometry>
        </mxCell>
        <mxCell id="3aSCwRJMT3F2lno_R7aL-6" value="" style="endArrow=none;html=1;rounded=0;labelBackgroundColor=default;strokeColor=#D88F8C;strokeWidth=4;align=center;verticalAlign=middle;fontFamily=Helvetica;fontSize=11;fontColor=default;shape=connector;" parent="1" edge="1">
          <mxGeometry width="50" height="50" relative="1" as="geometry">
            <mxPoint x="1028" y="164" as="sourcePoint" />
            <mxPoint x="1099" y="47" as="targetPoint" />
          </mxGeometry>
        </mxCell>
        <mxCell id="3aSCwRJMT3F2lno_R7aL-8" value="" style="endArrow=openThin;html=1;rounded=0;labelBackgroundColor=default;strokeColor=#D88F8C;strokeWidth=4;align=center;verticalAlign=middle;fontFamily=Helvetica;fontSize=11;fontColor=default;shape=connector;endFill=0;" parent="1" edge="1">
          <mxGeometry width="50" height="50" relative="1" as="geometry">
            <mxPoint x="1143" y="70" as="sourcePoint" />
            <mxPoint x="1134" y="48" as="targetPoint" />
          </mxGeometry>
        </mxCell>
        <mxCell id="3aSCwRJMT3F2lno_R7aL-9" value="" style="sketch=0;outlineConnect=0;fontColor=#232F3E;gradientColor=none;fillColor=#DB918D;strokeColor=none;dashed=0;verticalLabelPosition=bottom;verticalAlign=top;align=center;html=1;fontSize=12;fontStyle=0;aspect=fixed;shape=mxgraph.aws4.application_discovery_service_aws_agentless_collector;rotation=0;container=0;" parent="1" vertex="1">
          <mxGeometry x="1115" y="74" width="72" height="72" as="geometry" />
        </mxCell>
        <mxCell id="3aSCwRJMT3F2lno_R7aL-10" value="" style="sketch=0;outlineConnect=0;fontColor=#232F3E;gradientColor=none;fillColor=#DB918D;strokeColor=none;dashed=0;verticalLabelPosition=bottom;verticalAlign=top;align=center;html=1;fontSize=12;fontStyle=0;aspect=fixed;shape=mxgraph.aws4.mainframe_modernization_analyzer;rotation=0;container=0;flipV=0;" parent="1" vertex="1">
          <mxGeometry x="1423.5" y="590" width="63" height="63" as="geometry" />
        </mxCell>
        <mxCell id="3aSCwRJMT3F2lno_R7aL-11" value="" style="sketch=0;outlineConnect=0;fontColor=#232F3E;gradientColor=none;fillColor=#DB918D;strokeColor=#DB918D;dashed=0;verticalLabelPosition=bottom;verticalAlign=top;align=center;html=1;fontSize=12;fontStyle=0;aspect=fixed;pointerEvents=1;shape=mxgraph.aws4.backup_plan;fontFamily=Helvetica;container=0;rotation=0;flipV=0;" parent="1" vertex="1">
          <mxGeometry x="1423.5" y="728" width="63" height="63" as="geometry" />
        </mxCell>
        <mxCell id="3aSCwRJMT3F2lno_R7aL-12" value="" style="endArrow=openThin;html=1;rounded=0;labelBackgroundColor=default;strokeColor=#D88F8C;strokeWidth=4;align=center;verticalAlign=middle;fontFamily=Helvetica;fontSize=11;fontColor=default;shape=connector;endFill=0;" parent="1" edge="1">
          <mxGeometry width="50" height="50" relative="1" as="geometry">
            <mxPoint x="1182" y="172" as="sourcePoint" />
            <mxPoint x="1174" y="151" as="targetPoint" />
          </mxGeometry>
        </mxCell>
        <mxCell id="3aSCwRJMT3F2lno_R7aL-13" value="" style="endArrow=none;html=1;rounded=0;labelBackgroundColor=default;strokeColor=#D88F8C;strokeWidth=4;align=center;verticalAlign=middle;fontFamily=Helvetica;fontSize=11;fontColor=default;shape=connector;endFill=0;startArrow=openThin;startFill=0;" parent="1" edge="1">
          <mxGeometry width="50" height="50" relative="1" as="geometry">
            <mxPoint x="1225" y="31" as="sourcePoint" />
            <mxPoint x="1160" y="23" as="targetPoint" />
          </mxGeometry>
        </mxCell>
        <mxCell id="3aSCwRJMT3F2lno_R7aL-15" value="" style="endArrow=openThin;html=1;rounded=0;labelBackgroundColor=default;strokeColor=#D88F8C;strokeWidth=4;align=center;verticalAlign=middle;fontFamily=Helvetica;fontSize=11;fontColor=default;shape=connector;endFill=0;" parent="1" edge="1">
          <mxGeometry width="50" height="50" relative="1" as="geometry">
            <mxPoint x="1313" y="262" as="sourcePoint" />
            <mxPoint x="1340" y="262" as="targetPoint" />
          </mxGeometry>
        </mxCell>
        <mxCell id="3aSCwRJMT3F2lno_R7aL-16" value="" style="endArrow=none;html=1;rounded=0;labelBackgroundColor=default;strokeColor=#D88F8C;strokeWidth=4;align=center;verticalAlign=middle;fontFamily=Helvetica;fontSize=11;fontColor=default;shape=connector;startArrow=openThin;startFill=0;" parent="1" edge="1">
          <mxGeometry width="50" height="50" relative="1" as="geometry">
            <mxPoint x="1262" y="169" as="sourcePoint" />
            <mxPoint x="1287" y="148" as="targetPoint" />
          </mxGeometry>
        </mxCell>
        <mxCell id="3aSCwRJMT3F2lno_R7aL-17" value="" style="group;strokeColor=#DB918D;rounded=1;strokeWidth=4;container=0;" parent="1" vertex="1" connectable="0">
          <mxGeometry x="1115" y="177" width="190" height="160" as="geometry" />
        </mxCell>
        <mxCell id="3aSCwRJMT3F2lno_R7aL-18" value="" style="sketch=0;outlineConnect=0;fontColor=#232F3E;gradientColor=none;strokeColor=#DB918D;fillColor=none;dashed=0;verticalLabelPosition=bottom;verticalAlign=top;align=center;html=1;fontSize=12;fontStyle=0;aspect=fixed;shape=mxgraph.aws4.resourceIcon;resIcon=mxgraph.aws4.house;fontFamily=Helvetica;container=0;" parent="1" vertex="1">
          <mxGeometry x="1135" y="187" width="60" height="60" as="geometry" />
        </mxCell>
        <mxCell id="3aSCwRJMT3F2lno_R7aL-19" value="" style="sketch=0;outlineConnect=0;fontColor=#232F3E;gradientColor=none;strokeColor=#DB918D;fillColor=none;dashed=0;verticalLabelPosition=bottom;verticalAlign=top;align=center;html=1;fontSize=12;fontStyle=0;aspect=fixed;shape=mxgraph.aws4.resourceIcon;resIcon=mxgraph.aws4.thermostat;fontFamily=Helvetica;container=0;" parent="1" vertex="1">
          <mxGeometry x="1180" y="277" width="60" height="60" as="geometry" />
        </mxCell>
        <mxCell id="3aSCwRJMT3F2lno_R7aL-20" value="" style="sketch=0;outlineConnect=0;fontColor=#232F3E;gradientColor=none;strokeColor=#DB918D;fillColor=none;dashed=0;verticalLabelPosition=bottom;verticalAlign=top;align=center;html=1;fontSize=12;fontStyle=0;aspect=fixed;shape=mxgraph.aws4.resourceIcon;resIcon=mxgraph.aws4.generic;fontFamily=Helvetica;container=0;" parent="1" vertex="1">
          <mxGeometry x="1235" y="177" width="60" height="60" as="geometry" />
        </mxCell>
        <mxCell id="3aSCwRJMT3F2lno_R7aL-21" value="" style="group;strokeColor=#DB918D;rounded=1;strokeWidth=4;container=0;dashed=1;" parent="1" vertex="1" connectable="0">
          <mxGeometry x="890" y="177" width="190" height="160" as="geometry" />
        </mxCell>
        <mxCell id="3aSCwRJMT3F2lno_R7aL-22" value="" style="sketch=0;outlineConnect=0;fontColor=#232F3E;gradientColor=none;strokeColor=#DB918D;fillColor=none;dashed=0;verticalLabelPosition=bottom;verticalAlign=top;align=center;html=1;fontSize=12;fontStyle=0;aspect=fixed;shape=mxgraph.aws4.resourceIcon;resIcon=mxgraph.aws4.lightbulb;fontFamily=Helvetica;container=0;" parent="1" vertex="1">
          <mxGeometry x="1020" y="247" width="60" height="60" as="geometry" />
        </mxCell>
        <mxCell id="3aSCwRJMT3F2lno_R7aL-23" value="" style="sketch=0;outlineConnect=0;fontColor=#232F3E;gradientColor=none;strokeColor=#DB918D;fillColor=none;dashed=0;verticalLabelPosition=bottom;verticalAlign=top;align=center;html=1;fontSize=12;fontStyle=0;aspect=fixed;shape=mxgraph.aws4.resourceIcon;resIcon=mxgraph.aws4.house;fontFamily=Helvetica;container=0;" parent="1" vertex="1">
          <mxGeometry x="910" y="187" width="60" height="60" as="geometry" />
        </mxCell>
        <mxCell id="3aSCwRJMT3F2lno_R7aL-24" value="" style="sketch=0;outlineConnect=0;fontColor=#232F3E;gradientColor=none;strokeColor=#DB918D;fillColor=none;dashed=0;verticalLabelPosition=bottom;verticalAlign=top;align=center;html=1;fontSize=12;fontStyle=0;aspect=fixed;shape=mxgraph.aws4.resourceIcon;resIcon=mxgraph.aws4.thermostat;fontFamily=Helvetica;container=0;" parent="1" vertex="1">
          <mxGeometry x="955" y="277" width="60" height="60" as="geometry" />
        </mxCell>
        <mxCell id="3aSCwRJMT3F2lno_R7aL-25" value="" style="sketch=0;outlineConnect=0;fontColor=#232F3E;gradientColor=none;strokeColor=#DB918D;fillColor=none;dashed=0;verticalLabelPosition=bottom;verticalAlign=top;align=center;html=1;fontSize=12;fontStyle=0;aspect=fixed;shape=mxgraph.aws4.resourceIcon;resIcon=mxgraph.aws4.generic;fontFamily=Helvetica;container=0;" parent="1" vertex="1">
          <mxGeometry x="1010" y="177" width="60" height="60" as="geometry" />
        </mxCell>
        <mxCell id="3aSCwRJMT3F2lno_R7aL-26" value="" style="sketch=0;outlineConnect=0;fontColor=#232F3E;gradientColor=none;strokeColor=#DB918D;fillColor=none;dashed=0;verticalLabelPosition=bottom;verticalAlign=top;align=center;html=1;fontSize=12;fontStyle=0;aspect=fixed;shape=mxgraph.aws4.resourceIcon;resIcon=mxgraph.aws4.utility;fontFamily=Helvetica;container=0;" parent="1" vertex="1">
          <mxGeometry x="890" y="247" width="60" height="60" as="geometry" />
        </mxCell>
        <mxCell id="3aSCwRJMT3F2lno_R7aL-27" value="" style="sketch=0;outlineConnect=0;fontColor=#232F3E;gradientColor=none;strokeColor=#DB918D;fillColor=none;dashed=0;verticalLabelPosition=bottom;verticalAlign=top;align=center;html=1;fontSize=12;fontStyle=0;aspect=fixed;shape=mxgraph.aws4.resourceIcon;resIcon=mxgraph.aws4.generic;fontFamily=Helvetica;container=0;" parent="1" vertex="1">
          <mxGeometry x="963" y="220" width="60" height="60" as="geometry" />
        </mxCell>
        <mxCell id="3aSCwRJMT3F2lno_R7aL-28" value="" style="group;strokeColor=#DB918D;rounded=1;strokeWidth=4;container=0;" parent="1" vertex="1" connectable="0">
          <mxGeometry x="1347" y="177" width="190" height="160" as="geometry" />
        </mxCell>
        <mxCell id="3aSCwRJMT3F2lno_R7aL-29" value="" style="sketch=0;outlineConnect=0;fontColor=#232F3E;gradientColor=none;strokeColor=#DB918D;fillColor=none;dashed=0;verticalLabelPosition=bottom;verticalAlign=top;align=center;html=1;fontSize=12;fontStyle=0;aspect=fixed;shape=mxgraph.aws4.resourceIcon;resIcon=mxgraph.aws4.house;fontFamily=Helvetica;container=0;" parent="1" vertex="1">
          <mxGeometry x="1367" y="187" width="60" height="60" as="geometry" />
        </mxCell>
        <mxCell id="3aSCwRJMT3F2lno_R7aL-30" value="" style="sketch=0;outlineConnect=0;fontColor=#232F3E;gradientColor=none;strokeColor=#DB918D;fillColor=none;dashed=0;verticalLabelPosition=bottom;verticalAlign=top;align=center;html=1;fontSize=12;fontStyle=0;aspect=fixed;shape=mxgraph.aws4.resourceIcon;resIcon=mxgraph.aws4.thermostat;fontFamily=Helvetica;container=0;" parent="1" vertex="1">
          <mxGeometry x="1412" y="277" width="60" height="60" as="geometry" />
        </mxCell>
        <mxCell id="3aSCwRJMT3F2lno_R7aL-31" value="" style="sketch=0;outlineConnect=0;fontColor=#232F3E;gradientColor=none;strokeColor=#DB918D;fillColor=none;dashed=0;verticalLabelPosition=bottom;verticalAlign=top;align=center;html=1;fontSize=12;fontStyle=0;aspect=fixed;shape=mxgraph.aws4.resourceIcon;resIcon=mxgraph.aws4.generic;fontFamily=Helvetica;container=0;" parent="1" vertex="1">
          <mxGeometry x="1467" y="177" width="60" height="60" as="geometry" />
        </mxCell>
        <mxCell id="3aSCwRJMT3F2lno_R7aL-32" value="" style="sketch=0;outlineConnect=0;fontColor=#232F3E;gradientColor=none;strokeColor=#DB918D;fillColor=none;dashed=0;verticalLabelPosition=bottom;verticalAlign=top;align=center;html=1;fontSize=12;fontStyle=0;aspect=fixed;shape=mxgraph.aws4.resourceIcon;resIcon=mxgraph.aws4.utility;fontFamily=Helvetica;container=0;" parent="1" vertex="1">
          <mxGeometry x="1347" y="247" width="60" height="60" as="geometry" />
        </mxCell>
        <mxCell id="3aSCwRJMT3F2lno_R7aL-33" value="" style="sketch=0;outlineConnect=0;fontColor=#232F3E;gradientColor=none;strokeColor=#DB918D;fillColor=none;dashed=0;verticalLabelPosition=bottom;verticalAlign=top;align=center;html=1;fontSize=12;fontStyle=0;aspect=fixed;shape=mxgraph.aws4.resourceIcon;resIcon=mxgraph.aws4.generic;fontFamily=Helvetica;container=0;" parent="1" vertex="1">
          <mxGeometry x="1420" y="220" width="60" height="60" as="geometry" />
        </mxCell>
        <mxCell id="3aSCwRJMT3F2lno_R7aL-37" value="DoThing" style="rounded=1;whiteSpace=wrap;html=1;dashed=1;labelBackgroundColor=none;strokeColor=#FFFFFF;strokeWidth=3;align=center;verticalAlign=bottom;fontFamily=Helvetica;fontSize=12;fontColor=#FFFFFF;fillColor=none;fontStyle=1" parent="1" vertex="1">
          <mxGeometry x="1400" y="840" width="110" height="110" as="geometry" />
        </mxCell>
        <mxCell id="3aSCwRJMT3F2lno_R7aL-36" value="Bran" style="rounded=1;whiteSpace=wrap;html=1;dashed=1;labelBackgroundColor=none;strokeColor=#FFFFFF;strokeWidth=3;align=center;verticalAlign=bottom;fontFamily=Helvetica;fontSize=12;fontColor=#FFFFFF;fillColor=none;fontStyle=1" parent="1" vertex="1">
          <mxGeometry x="1400" y="710" width="110" height="110" as="geometry" />
        </mxCell>
        <mxCell id="3aSCwRJMT3F2lno_R7aL-7" value="" style="sketch=0;outlineConnect=0;fontColor=#232F3E;gradientColor=none;fillColor=#DB918D;strokeColor=#DB918D;dashed=0;verticalLabelPosition=bottom;verticalAlign=top;align=center;html=1;fontSize=12;fontStyle=0;aspect=fixed;pointerEvents=1;shape=mxgraph.aws4.action;fontFamily=Helvetica;container=0;rotation=0;flipV=0;" parent="1" vertex="1">
          <mxGeometry x="1423.5" y="854" width="63" height="63" as="geometry" />
        </mxCell>
      </root>
    </mxGraphModel>
  </diagram>
</mxfile>
